<?xml version="1.0" encoding="UTF-8"?>
<!DOCTYPE svg PUBLIC "-//W3C//DTD SVG 1.1//EN" "http://www.w3.org/Graphics/SVG/1.1/DTD/svg11.dtd">
<!-- Creator: CorelDRAW 2018 (64-Bit) -->
<svg xmlns="http://www.w3.org/2000/svg" xml:space="preserve" width="172.583mm" height="29.5989mm" version="1.1" style="shape-rendering:geometricPrecision; text-rendering:geometricPrecision; image-rendering:optimizeQuality; fill-rule:evenodd; clip-rule:evenodd"
viewBox="0 0 17265.66 2961.16"
 xmlns:xlink="http://www.w3.org/1999/xlink">
 <defs>
  <style type="text/css">
   <![CDATA[
    .fil0 {fill:#2B2A29;fill-rule:nonzero}
   ]]>
  </style>
 </defs>
 <g id="Layer_x0020_1">
  <metadata id="CorelCorpID_0Corel-Layer"/>
  <polygon class="fil0" points="309.67,1782.2 309.67,2201.91 683.8,2201.91 683.8,1782.2 993.48,1782.2 993.48,2961.16 683.8,2961.16 683.8,2511.59 309.67,2511.59 309.67,2961.16 -0,2961.16 -0,1782.2 "/>
  <path class="fil0" d="M2502.83 2090.32c-154.05,0 -279.8,125.73 -279.8,281.38 0,154.03 125.75,281.38 279.8,281.38 155.64,0 281.38,-127.35 281.38,-281.38 0,-155.65 -125.74,-281.38 -281.38,-281.38zm0 -308.12c325.39,0 589.49,265.66 589.49,591.05 0,325.39 -264.1,587.91 -589.49,587.91 -325.38,0 -587.91,-262.52 -587.91,-587.91 0,-325.39 262.53,-591.05 587.91,-591.05z"/>
  <polygon class="fil0" points="3990.22,1780.64 4919.24,1780.64 4919.24,2088.74 4606.44,2088.74 4606.44,2961.16 4296.77,2961.16 4296.77,2088.74 3990.22,2088.74 "/>
  <path class="fil0" d="M6857.88 2381.1l191.78 0c94.3,0 169.75,-73.85 169.75,-168.19 0,-94.3 -75.45,-169.77 -169.75,-169.77l-191.78 0 0 337.97zm-309.66 -598.91l496.71 0c238.93,0 433.86,194.94 433.86,433.86 0,237.36 -193.33,432.3 -427.54,432.3l-193.36 0 0 312.81 -309.66 0 0 -1178.97z"/>
  <path class="fil0" d="M8917.4 2090.32c-154.02,0 -279.8,125.73 -279.8,281.38 0,154.03 125.78,281.38 279.8,281.38 155.65,0 281.36,-127.35 281.36,-281.38 0,-155.65 -125.71,-281.38 -281.36,-281.38zm0 -308.12c325.4,0 589.5,265.66 589.5,591.05 0,325.39 -264.1,587.91 -589.5,587.91 -325.37,0 -587.91,-262.52 -587.91,-587.91 0,-325.39 262.54,-591.05 587.91,-591.05z"/>
  <polygon class="fil0" points="10404.79,1780.64 11333.84,1780.64 11333.84,2088.74 11021.03,2088.74 11021.03,2961.16 10711.34,2961.16 10711.34,2088.74 10404.79,2088.74 "/>
  <path class="fil0" d="M12678.14 2546.16l240.52 0 -119.47 -259.36 -121.05 259.36zm-501.48 415l550.22 -1178.97 139.86 0 554.88 1178.97 -309.62 0 -72.31 -154.02 -482.6 0 -70.73 154.02 -309.69 0z"/>
  <polygon class="fil0" points="14261.42,1780.64 15190.43,1780.64 15190.43,2088.74 14877.6,2088.74 14877.6,2961.16 14567.97,2961.16 14567.97,2088.74 14261.42,2088.74 "/>
  <path class="fil0" d="M16676.23 2090.32c-154.05,0 -279.83,125.73 -279.83,281.38 0,154.03 125.78,281.38 279.83,281.38 155.58,0 281.39,-127.35 281.39,-281.38 0,-155.65 -125.81,-281.38 -281.39,-281.38zm0 -308.12c325.37,0 589.43,265.66 589.43,591.05 0,325.39 -264.06,587.91 -589.43,587.91 -325.4,0 -587.9,-262.52 -587.9,-587.91 0,-325.39 262.5,-591.05 587.9,-591.05z"/>
  <path class="fil0" d="M2781.04 363.12c0,116.53 -94.43,210.99 -210.95,210.99l-152.18 0c-116.5,0 -210.98,-94.46 -210.98,-210.99l0 -152.13c0,-116.54 94.48,-210.99 210.98,-210.99l152.18 0c116.52,0 210.95,94.45 210.95,210.99l0 152.13z"/>
  <path class="fil0" d="M4724.71 363.12c0,116.53 -94.45,210.99 -210.95,210.99l-152.19 0c-116.5,0 -210.98,-94.46 -210.98,-210.99l0 -152.13c0,-116.54 94.48,-210.99 210.98,-210.99l152.19 0c116.5,0 210.95,94.45 210.95,210.99l0 152.13z"/>
  <path class="fil0" d="M763.63 371.87c0,116.52 -94.5,210.99 -211,210.99l-152.13 0c-116.53,0 -211,-94.47 -211,-210.99l0 -152.13c0,-116.55 94.47,-210.99 211,-210.99l152.13 0c116.5,0 211,94.44 211,210.99l0 152.13z"/>
  <path class="fil0" d="M9209.09 363.12c0,116.53 -94.51,210.99 -210.98,210.99l-152.15 0c-116.57,0 -210.98,-94.46 -210.98,-210.99l0 -152.13c0,-116.54 94.41,-210.99 210.98,-210.99l152.15 0c116.47,0 210.98,94.45 210.98,210.99l0 152.13z"/>
  <path class="fil0" d="M11147.6 371.87c0,116.52 -94.44,210.99 -210.95,210.99l-152.11 0c-116.58,0 -211.02,-94.47 -211.02,-210.99l0 -152.13c0,-116.55 94.44,-210.99 211.02,-210.99l152.11 0c116.51,0 210.95,94.44 210.95,210.99l0 152.13z"/>
  <path class="fil0" d="M13080.98 371.87c0,116.52 -94.44,210.99 -210.98,210.99l-152.15 0c-116.5,0 -210.91,-94.47 -210.91,-210.99l0 -152.13c0,-116.55 94.41,-210.99 210.91,-210.99l152.15 0c116.54,0 210.98,94.44 210.98,210.99l0 152.13z"/>
  <path class="fil0" d="M15010.8 371.87c0,116.52 -94.51,210.99 -211.09,210.99l-152.04 0c-116.58,0 -211.02,-94.47 -211.02,-210.99l0 -152.13c0,-116.55 94.44,-210.99 211.02,-210.99l152.04 0c116.58,0 211.09,94.44 211.09,210.99l0 152.13z"/>
  <path class="fil0" d="M16933.98 371.87c0,116.52 -94.45,210.99 -211.02,210.99l-152.12 0c-116.5,0 -211.01,-94.47 -211.01,-210.99l0 -152.13c0,-116.55 94.51,-210.99 211.01,-210.99l152.12 0c116.57,0 211.02,94.44 211.02,210.99l0 152.13z"/>
  <path class="fil0" d="M7269.78 363.12c0,116.53 -94.48,210.99 -210.98,210.99l-152.15 0c-116.5,0 -210.98,-94.46 -210.98,-210.99l0 -152.13c0,-116.54 94.48,-210.99 210.98,-210.99l152.15 0c116.5,0 210.98,94.45 210.98,210.99l0 152.13z"/>
 </g>
</svg>
